<?xml version="1.0" standalone="no"?>
<!DOCTYPE svg PUBLIC "-//W3C//DTD SVG 20010904//EN"
 "http://www.w3.org/TR/2001/REC-SVG-20010904/DTD/svg10.dtd">
<svg version="1.0" xmlns="http://www.w3.org/2000/svg"
 width="789.000000pt" height="789.000000pt" viewBox="0 0 789.000000 789.000000"
 preserveAspectRatio="xMidYMid meet">
<metadata>
Created by potrace 1.16, written by Peter Selinger 2001-2019
</metadata>
<g transform="translate(0.000000,789.000000) scale(0.100000,-0.100000)"
fill="#000000" stroke="none">
<path d="M3580 6784 c-19 -2 -76 -9 -127 -14 -455 -50 -941 -253 -1357 -568
-121 -91 -333 -296 -423 -407 -183 -227 -343 -537 -343 -664 0 -194 202 -231
468 -85 35 19 134 84 220 143 409 284 817 479 1230 585 130 34 431 77 578 83
266 10 509 -44 765 -172 124 -62 206 -124 315 -237 203 -211 252 -443 152
-728 -64 -183 -141 -285 -305 -407 -63 -46 -119 -95 -125 -109 -19 -40 6 -71
111 -141 138 -91 184 -140 241 -258 64 -132 84 -227 77 -359 -11 -209 -103
-396 -270 -552 -130 -121 -294 -203 -522 -259 -104 -26 -118 -27 -275 -22
-178 7 -245 18 -385 67 -139 49 -248 105 -298 154 -75 72 -106 148 -162 393
-19 81 -34 139 -34 127 -2 -37 68 -360 89 -417 24 -64 131 -187 180 -207 17
-7 29 -15 26 -17 -6 -6 -172 64 -236 100 -178 100 -224 169 -256 377 -13 89
-67 741 -95 1145 -13 192 -8 324 13 376 43 100 154 169 273 169 86 0 209 -25
251 -50 37 -24 130 -118 179 -183 91 -119 96 -177 61 -618 -46 -557 -41 -645
39 -724 63 -63 127 -79 278 -71 135 8 167 18 225 70 82 74 109 218 63 334
l-21 53 25 -18 c40 -29 150 -183 175 -246 18 -47 25 -55 36 -46 24 20 47 118
41 176 -12 117 -76 203 -219 295 -91 59 -183 154 -193 200 l-8 33 -15 -24
c-41 -61 -58 -147 -36 -182 15 -25 -60 28 -91 64 -64 74 -66 175 -6 303 31 66
88 136 263 321 151 158 173 201 173 333 0 87 -2 99 -29 145 -16 28 -54 74 -84
103 -41 39 -50 52 -36 52 33 0 89 -45 78 -62 -3 -5 10 -26 29 -47 19 -21 40
-54 46 -72 15 -43 90 -106 104 -87 6 9 7 8 3 -4 -3 -10 1 -32 9 -50 l14 -33 2
35 c8 162 -46 247 -206 326 -122 60 -415 100 -685 91 -278 -8 -480 -57 -715
-173 -448 -222 -796 -652 -893 -1105 -94 -439 -22 -929 202 -1371 139 -274
326 -488 583 -667 149 -104 245 -157 403 -220 311 -123 611 -171 959 -151 456
26 849 150 1206 382 465 301 769 732 978 1383 152 473 175 1041 61 1515 -85
357 -215 643 -423 930 -31 44 -43 65 -27 50 15 -14 63 -78 106 -142 43 -64 87
-130 98 -145 46 -67 73 -112 104 -173 57 -109 102 -177 106 -157 2 9 8 17 13
17 5 0 9 7 9 15 0 33 17 12 38 -45 12 -34 17 -58 12 -55 -6 3 -10 -3 -10 -14
0 -10 -5 -21 -11 -23 -7 -2 -7 -12 2 -31 9 -20 15 -24 21 -15 5 8 6 4 3 -12
-5 -21 12 -81 61 -220 5 -13 8 -12 19 4 13 17 15 14 29 -35 12 -44 45 -235 70
-404 2 -16 2 13 -1 65 -6 108 -42 339 -72 457 -29 113 -104 327 -152 435 -129
286 -298 529 -529 758 -361 358 -710 539 -1185 615 -91 15 -188 18 -565 20
-250 2 -471 1 -490 -1z"/>
<path d="M1380 4559 c-36 -3 -108 -15 -160 -27 -52 -12 -130 -28 -173 -37
-174 -36 -289 -127 -329 -258 -19 -63 -20 -79 -10 -135 12 -75 53 -143 124
-207 98 -88 201 -94 357 -20 60 29 93 54 161 123 127 130 258 323 275 405 5
26 6 26 29 12 21 -14 23 -14 34 10 18 40 14 64 -14 90 -41 38 -162 56 -294 44z"/>
<path d="M6935 4366 c-16 -7 -67 -23 -112 -35 -130 -37 -192 -106 -193 -214 0
-92 52 -163 163 -218 56 -29 67 -31 129 -26 82 7 139 32 194 83 35 32 43 48
48 89 5 33 2 66 -8 100 -8 27 -14 51 -12 53 6 5 55 -62 76 -103 20 -38 21 -37
35 33 17 83 -42 190 -128 231 -50 24 -144 28 -192 7z"/>
<path d="M6739 3846 c-14 -7 -47 -15 -73 -18 -26 -3 -55 -13 -66 -23 -51 -46
-31 -143 45 -222 67 -69 99 -69 171 -1 17 16 43 32 57 36 25 7 26 8 12 32 -8
14 -19 36 -25 50 -6 14 -21 35 -33 48 -18 20 -19 24 -7 32 8 5 22 10 31 10 25
0 78 -51 88 -85 9 -29 9 -29 10 12 2 92 -127 172 -210 129z"/>
<path d="M1615 3808 c-22 -6 -50 -12 -63 -14 -36 -7 -99 -71 -129 -131 -39
-81 -44 -199 -11 -263 42 -82 130 -109 235 -74 66 22 100 49 124 96 37 73 35
148 -8 258 -5 12 -3 12 13 -1 10 -9 26 -14 34 -12 12 4 12 3 1 -5 -10 -8 -6
-18 24 -50 20 -23 40 -54 45 -69 6 -21 8 -9 9 50 1 110 -30 176 -101 213 -30
16 -112 17 -173 2z"/>
</g>
</svg>
